<svg width="16" height="16" viewBox="0 0 16 16" fill="none" xmlns="http://www.w3.org/2000/svg">
    <path
        d="M3.95455 11.6767C3.95455 12.229 4.40226 12.6767 4.95455 12.6767H10.0455C10.5977 12.6767 11.0455 12.229 11.0455 11.6767V6.57369C11.0455 6.31155 10.9425 6.05988 10.7588 5.87288L8.21335 3.2819C7.82144 2.88298 7.17856 2.88298 6.78665 3.28189L4.2412 5.87288C4.05748 6.05988 3.95455 6.31154 3.95455 6.57369V11.6767ZM11.6364 14H3.36364C3.03729 14 2.77273 13.7038 2.77273 13.3384V7.90755C2.77273 7.61826 2.53821 7.38374 2.24891 7.38374C1.78448 7.38374 1.54977 6.82413 1.87525 6.49283L7.1025 1.17206C7.32787 0.942645 7.67213 0.942645 7.89751 1.17206L13.1248 6.49283C13.4502 6.82413 13.2155 7.38374 12.7511 7.38374C12.4618 7.38374 12.2273 7.61826 12.2273 7.90755V13.3384C12.2273 13.7038 11.9627 14 11.6364 14ZM4.89275 9.29495C4.83528 8.9737 5.10547 8.70699 5.43182 8.70699C5.75817 8.70699 6.01272 8.97848 6.11641 9.28792C6.32648 9.91486 6.86671 10.3611 7.5 10.3611C8.1333 10.3611 8.67352 9.91486 8.88359 9.28792C8.98728 8.97848 9.24183 8.70699 9.56818 8.70699C9.89453 8.70699 10.1647 8.9737 10.1073 9.29495C9.86347 10.6577 8.78882 11.6843 7.5 11.6843C6.21119 11.6843 5.13653 10.6577 4.89275 9.29495Z"
        fill="currentColor" />
</svg>