<svg width="13" height="14" viewBox="0 0 13 14" fill="none" xmlns="http://www.w3.org/2000/svg">
    <path
        d="M2.95455 11.575C2.95455 12.1272 3.40226 12.575 3.95455 12.575H9.04545C9.59774 12.575 10.0455 12.1272 10.0455 11.575V5.94954C10.0455 5.70018 9.95229 5.45982 9.78423 5.27559L7.23878 2.4853C6.84219 2.05057 6.15781 2.05057 5.76122 2.4853L3.21577 5.27559C3.04771 5.45982 2.95455 5.70018 2.95455 5.94954V11.575ZM10.6364 14H2.36364C2.03729 14 1.77273 13.681 1.77273 13.2875V7.41761C1.77273 7.11782 1.5297 6.8748 1.22992 6.8748C0.758237 6.8748 0.511014 6.31463 0.828903 5.96616L6.1025 0.1853C6.32787 -0.0617666 6.67213 -0.0617666 6.89751 0.1853L12.1711 5.96616C12.489 6.31463 12.2418 6.8748 11.7701 6.8748C11.4703 6.8748 11.2273 7.11782 11.2273 7.41761V13.2875C11.2273 13.681 10.9627 14 10.6364 14ZM3.88566 8.88871C3.836 8.56616 4.10547 8.29984 4.43182 8.29984C4.75817 8.29984 5.01367 8.5697 5.10381 8.88336C5.3042 9.58055 5.85362 10.0811 6.5 10.0811C7.14638 10.0811 7.69581 9.58055 7.89619 8.88336C7.98633 8.5697 8.24183 8.29984 8.56818 8.29984C8.89453 8.29984 9.164 8.56616 9.11434 8.88871C8.88503 10.3783 7.80176 11.5062 6.5 11.5062C5.19825 11.5062 4.11497 10.3783 3.88566 8.88871Z"
        fill="currentColor" />
</svg>