<svg width="13" height="13" viewBox="0 0 13 13" fill="currentColor" xmlns="http://www.w3.org/2000/svg">
    <path
        d="M11.2273 12.3384C11.2273 12.7038 10.9627 13 10.6364 13H2.36364C2.03729 13 1.77273 12.7038 1.77273 12.3384V6.90755C1.77273 6.61826 1.53821 6.38374 1.24891 6.38374C0.784479 6.38374 0.549771 5.82413 0.87525 5.49283L6.1025 0.172064C6.32787 -0.0573547 6.67213 -0.0573547 6.8975 0.172064L12.1248 5.49283C12.4502 5.82413 12.2155 6.38374 11.7511 6.38374C11.4618 6.38374 11.2273 6.61826 11.2273 6.90755V12.3384ZM9.04545 11.6767C9.59774 11.6767 10.0455 11.229 10.0455 10.6767V5.57369C10.0455 5.31154 9.94252 5.05988 9.7588 4.87288L7.21335 2.2819C6.82144 1.88298 6.17856 1.88298 5.78665 2.28189L3.2412 4.87288C3.05748 5.05988 2.95455 5.31154 2.95455 5.57369V10.6767C2.95455 11.229 3.40226 11.6767 3.95455 11.6767H9.04545ZM7.24585 9.51839C6.84826 9.96356 6.15175 9.96356 5.75416 9.51839L4.51528 8.13123C3.99606 7.54986 3.99606 6.6073 4.51528 6.02593C5.0345 5.4446 5.8763 5.4446 6.39553 6.02593C6.45122 6.08829 6.54878 6.08829 6.60447 6.02593C7.1237 5.4446 7.96551 5.4446 8.48475 6.02593C9.00392 6.6073 9.00392 7.54986 8.48475 8.13123L7.24585 9.51839Z"
        fill="currentColor" />
</svg>