<svg width="13" height="13" viewBox="0 0 13 13" fill="currentColor" xmlns="http://www.w3.org/2000/svg">
    <path
        d="M6.5 0C2.91304 0 0 2.91303 0 6.49996C0 10.0869 2.91304 13 6.5 13C10.087 13 13 10.0869 13 6.49999C13 2.91305 10.087 0 6.5 0ZM6.5 0.485396C8.07878 0.485396 9.51416 1.0918 10.5866 2.08477C9.14034 1.46866 7.29888 2.1999 6.33139 1.58072C6.75563 2.3449 7.47121 2.37146 8.33826 2.32451C8.95676 3.08083 10.0146 2.80785 11.2329 2.78535C11.7044 3.3854 12.0569 4.07001 12.2714 4.80235C11.6275 4.98736 10.3034 4.911 9.76735 4.77863C9.99061 4.99631 10.2856 5.10466 10.6374 5.17427C9.33015 5.20319 8.0793 5.3222 7.26578 4.85743C7.50542 5.24272 7.81106 5.4865 8.16794 5.6334C7.62681 5.62166 7.12482 5.54638 6.67956 5.33269C7.40688 6.15796 8.55269 6.16274 9.78264 6.04509C10.6247 6.35141 11.591 6.42406 12.5129 6.38055C12.5137 6.4204 12.5146 6.45998 12.5146 6.49999C12.5146 7.02046 12.4488 7.52559 12.3248 8.00706C12.0556 7.93991 11.7719 7.87843 11.476 7.82326L11.6632 7.13364L11.1745 7.00151L10.9745 7.73684C10.5866 7.67558 10.182 7.62399 9.76567 7.58097L9.85632 6.73046L9.35227 6.67624L9.26078 7.53356C8.78194 7.49317 8.29044 7.46444 7.79436 7.44627L7.83163 6.50771L7.32591 6.48738L7.28779 7.43107C6.98738 7.42461 6.68626 7.42212 6.38558 7.42348C6.20081 7.42429 6.01628 7.42732 5.83241 7.43107L5.79174 6.40855L5.28601 6.42888L5.32668 7.44462C4.85601 7.46094 4.38575 7.48749 3.91624 7.52426L3.80691 6.50262L3.30378 6.55602L3.41135 7.56829C3.00662 7.60732 2.61361 7.65395 2.23973 7.70808L2.00085 6.82707L1.51209 6.96006L1.73655 7.78686C1.35747 7.85165 1.00176 7.9243 0.674262 8.00543C0.550594 7.52448 0.485318 7.01986 0.485318 6.50007C0.485318 5.68113 0.64878 4.90116 0.944476 4.19C2.18026 4.60969 4.68012 3.85842 6.58466 4.63642C6.21661 4.29215 5.796 4.09399 5.35042 3.97146C6.50957 4.09654 8.10914 3.61748 9.75125 4.2883C9.38827 3.94874 8.97088 3.7617 8.53219 3.63852C7.68484 2.92314 6.59829 2.86765 5.55539 2.89476C4.57849 2.19415 3.31533 2.26672 2.18557 2.30773C3.27803 1.18367 4.8065 0.485396 6.5 0.485396ZM6.3856 7.94349C6.67946 7.94219 6.97404 7.94522 7.26749 7.95116L7.24038 8.62208C6.78715 8.61655 6.33386 8.61937 5.88074 8.63054L5.85363 7.95029C6.03073 7.9469 6.20769 7.9443 6.3856 7.94349ZM5.34709 7.96471L5.3742 8.64664C4.93044 8.66345 4.48695 8.68747 4.04416 8.71861L3.97135 8.03837C4.41815 8.00464 4.87958 7.98046 5.34709 7.96471ZM7.77408 7.96553C8.25913 7.9825 8.73914 8.00906 9.20575 8.04685L9.13627 8.69663C8.67394 8.66535 8.21102 8.6436 7.74779 8.63138L7.77408 7.96553ZM3.46643 8.08074L3.5384 8.75762C3.20854 8.78455 2.87897 8.81505 2.54977 8.84911L2.3753 8.2053C2.72351 8.15723 3.08881 8.11581 3.46643 8.08074ZM9.71061 8.09261C10.1004 8.13164 10.4787 8.17759 10.8407 8.23243L10.6763 8.83811C10.3321 8.79806 9.98729 8.76362 9.64197 8.73483L9.71061 8.09261ZM1.87125 8.28155L2.03986 8.90504C1.70653 8.94332 1.37359 8.98483 1.04106 9.02957C0.959553 8.8539 0.88661 8.67438 0.822489 8.49164C1.14258 8.41362 1.49434 8.34352 1.87125 8.28155ZM11.3422 8.31625C11.635 8.36925 11.9142 8.42772 12.1775 8.49245C12.1151 8.66992 12.0444 8.84436 11.9657 9.01518C11.7055 8.97366 11.4449 8.93552 11.1838 8.90078L11.3422 8.31625Z"
        fill="currentColor" />
</svg>