<svg width="17" height="17" viewBox="0 0 17 17" fill="none" xmlns="http://www.w3.org/2000/svg">
    <g clip-path="url(#clip0_126_201)">
        <path
            d="M0 3.5C0 5.433 1.567 7 3.5 7C5.433 7 7 5.433 7 3.5C7 1.567 5.433 0 3.5 0C1.567 0 0 1.567 0 3.5ZM5.98753 3.5C5.98753 4.87382 4.87382 5.98753 3.5 5.98753C2.12618 5.98753 1.01247 4.87382 1.01247 3.5C1.01247 2.12618 2.12618 1.01247 3.5 1.01247C4.87382 1.01247 5.98753 2.12618 5.98753 3.5Z"
            fill="currentColor" />
        <rect width="8" height="1" transform="matrix(-1 0 0 1 17 3)" fill="currentColor" />
        <path
            d="M17 13.5C17 15.433 15.433 17 13.5 17C11.567 17 10 15.433 10 13.5C10 11.567 11.567 10 13.5 10C15.433 10 17 11.567 17 13.5ZM11.0125 13.5C11.0125 14.8738 12.1262 15.9875 13.5 15.9875C14.8738 15.9875 15.9875 14.8738 15.9875 13.5C15.9875 12.1262 14.8738 11.0125 13.5 11.0125C12.1262 11.0125 11.0125 12.1262 11.0125 13.5Z"
            fill="currentColor" />
        <rect y="13" width="8" height="1" fill="currentColor" />
    </g>
    <defs>
        <clipPath id="clip0_126_201">
            <rect width="17" height="17" fill="transparent" />
        </clipPath>
    </defs>
</svg>