<svg width="13" height="13" viewBox="0 0 13 13" fill="currentColor" xmlns="http://www.w3.org/2000/svg">
    <path
        d="M7.12817 5.84101e-05C6.92124 -0.00190152 6.7079 0.0455007 6.48993 0.136413C6.47232 0.369812 6.4931 0.63247 6.56109 0.876957C6.66181 1.23921 6.85872 1.55406 7.14895 1.72773C7.41317 1.88584 7.77012 1.94892 8.28618 1.79807C8.19237 1.60104 8.10473 1.41006 8.02205 1.23196C7.84057 0.841034 7.67696 0.506727 7.52128 0.290883C7.3656 0.0750115 7.25035 0.00120637 7.12817 5.84101e-05ZM5.97523 0.424326C5.74219 0.58588 5.50555 0.789824 5.2671 1.03073C4.97395 1.32687 4.68074 1.67465 4.38965 2.05339C4.86159 2.2771 5.19207 2.70938 5.19207 3.22562C5.19207 3.98439 4.47859 4.56226 3.65054 4.56226C3.30798 4.56226 2.9852 4.46315 2.72427 4.29342C2.24947 4.8016 1.68343 5.30401 1.18906 5.79169C0.817162 6.15854 0.487196 6.51519 0.272759 6.83656C0.0583509 7.15793 -0.0288906 7.42938 0.00834487 7.63879C0.0522346 7.8856 0.241838 8.12238 0.60349 8.34467C0.965142 8.56698 1.48488 8.75964 2.10509 8.90884C2.24276 8.942 2.38609 8.97271 2.53308 9.00172C2.57609 8.89187 2.62035 8.78251 2.66586 8.67365C2.302 8.57213 2.01374 8.40033 1.83705 8.15164C1.70068 7.95968 1.65687 7.72152 1.70461 7.48454C0.468395 6.39938 2.77014 4.96374 3.30877 6.08963C3.5682 5.99248 3.84507 5.91357 4.13313 5.84932C4.82404 5.69527 5.58569 5.62709 6.34659 5.61659C6.59929 5.61324 6.85203 5.61579 7.10461 5.62423C8.10787 5.65733 9.06603 5.77694 9.80723 5.92517C10.1778 5.99931 10.4936 6.0802 10.7393 6.16428C10.8621 6.20628 10.9673 6.24878 11.0573 6.29568C11.1473 6.34255 11.2246 6.38569 11.2939 6.48089C11.9033 7.318 11.4353 8.36541 10.6409 8.60651C10.675 8.69466 10.7071 8.78354 10.7372 8.87309C11.2523 8.75214 11.8059 8.59674 12.2582 8.38177C12.054 8.14825 11.9302 7.83962 11.9302 7.50531C11.9302 7.08429 12.1267 6.70407 12.4327 6.46328C12.2731 6.27843 12.0858 6.08932 11.8766 5.89658C11.4738 5.52559 11.0064 5.14755 10.553 4.75517C9.92794 5.48525 8.80634 5.53861 8.29649 5.13859C7.65442 4.59762 7.66623 3.58496 8.25322 2.88647C8.36978 2.74775 8.50578 2.62622 8.65712 2.52556C8.60782 2.43648 8.55981 2.34671 8.5131 2.25627C7.8534 2.46601 7.29727 2.40556 6.88505 2.15889C6.45181 1.89962 6.19522 1.46222 6.06963 1.0106C6.01655 0.819171 5.98489 0.622588 5.97523 0.424326ZM4.08015 2.46816C3.69642 2.97304 3.42699 3.4633 3.06219 3.90989C3.22643 4.00262 3.42753 4.05825 3.65054 4.05825C4.24376 4.05825 4.68238 3.66487 4.68238 3.22559C4.68238 2.90156 4.44353 2.60276 4.08015 2.46816ZM8.91627 2.96067C8.25583 3.40305 8.14316 4.44441 8.62223 4.75092C9.20028 5.12078 9.87142 4.80266 10.1732 4.41812C9.68377 3.98291 9.24352 3.47156 8.91627 2.96067ZM1.92392 7.02387C2.15812 6.72759 2.46603 6.49195 2.82474 6.3043C2.54724 5.67404 1.42822 6.66725 1.92392 7.02387ZM6.48619 6.11976C6.2489 6.12093 5.98967 6.12928 5.77758 6.14112L5.8691 6.84821C6.07037 6.82592 6.26581 6.80212 6.44018 6.78888L6.48619 6.11976ZM6.9534 6.75393C7.12307 6.74539 7.2915 6.73994 7.45723 6.73803L7.60957 6.15339C7.38754 6.13978 7.0889 6.13101 6.99002 6.12835L6.9534 6.75393ZM5.26883 6.18066C5.04522 6.20314 4.82614 6.23226 4.61414 6.2686L4.87521 7.00621C5.03769 6.97407 5.20081 6.94514 5.36445 6.91941L5.26883 6.18066ZM8.12535 6.1939L7.9819 6.74425C8.18515 6.75189 8.38084 6.76606 8.5662 6.78709L8.89642 6.28341C8.64013 6.24776 8.38305 6.21792 8.12537 6.1939H8.12535ZM9.44685 6.37029L9.11366 6.8785C9.27209 6.91848 9.41183 6.959 9.54757 7.01718L10.1051 6.50735C9.87352 6.45169 9.66338 6.40893 9.44688 6.37032L9.44685 6.37029ZM4.11099 6.3725C3.9546 6.41069 3.79998 6.45563 3.64757 6.50718L3.98807 7.22871C4.11603 7.18854 4.24511 7.15193 4.37515 7.1189L4.11099 6.3725ZM10.671 6.6764L9.97551 7.31229C10.0209 7.3654 10.0524 7.42028 10.085 7.47552L11.0613 7.19548C11.0064 6.91036 10.9091 6.76877 10.671 6.6764ZM3.17509 6.69791C2.99964 6.78196 2.84031 6.87565 2.69981 6.9791L3.28439 7.53942C3.35291 7.49305 3.42999 7.45315 3.51267 7.4132L3.17509 6.69791ZM12.7372 6.86478C12.5572 7.0101 12.4398 7.2398 12.4398 7.50529C12.4398 7.75266 12.5418 7.96895 12.7013 8.11485C12.8973 7.96058 12.9869 7.81286 12.9972 7.6835C13.0179 7.42619 12.9211 7.152 12.7372 6.86478ZM3.50809 8.02002C2.6419 9.93226 2.3336 10.7093 2.69261 12.3877C2.78824 12.8347 5.55026 13.036 7.01043 12.9947C6.97274 12.6611 6.92755 12.1149 6.95253 11.5588C6.97257 11.1119 7.03396 10.6567 7.20205 10.2784C7.37016 9.90012 7.6937 9.57973 8.14899 9.55988C8.61838 9.53941 8.99337 9.80145 9.23029 10.1463C9.46724 10.4912 9.60392 10.9225 9.69411 11.3479C9.80409 11.867 9.84008 12.3807 9.85169 12.7042C10.0083 12.654 10.2026 12.6073 10.311 12.5051C10.7226 10.7621 10.6428 9.37226 9.60953 7.66989C9.27177 7.05582 3.82902 7.20847 3.50809 8.02005V8.02002ZM2.33099 7.32749C2.19876 7.53183 2.14277 7.69985 2.25411 7.86188C2.34385 7.98816 2.55321 8.12348 2.86871 8.20338C2.90603 8.11915 2.94363 8.03503 2.98149 7.95103L2.33099 7.32749ZM10.9578 7.75L10.3363 7.92827C10.3723 7.99843 10.4064 8.06826 10.4394 8.13795C10.6506 8.09206 10.842 7.94775 10.9578 7.75ZM6.22393 8.20966C6.04599 9.04806 5.96059 9.7718 5.99978 10.5558C5.13348 10.6667 4.13874 10.6435 3.43619 10.4849C3.52448 9.71855 3.67699 8.85218 3.96426 8.27688C4.79442 8.13129 5.45192 8.02895 6.22393 8.20968V8.20966ZM5.17601 8.59727C5.13946 8.75984 5.10699 8.92327 5.07863 9.08742L5.53123 9.09551C5.55159 8.93088 5.57705 8.76728 5.60922 8.60777C5.46396 8.59335 5.31561 8.59355 5.17601 8.59727ZM4.64605 8.63871C4.52964 8.65431 4.39913 8.63182 4.30546 8.65503C4.25614 8.76826 4.23629 8.93676 4.20095 9.07172L4.56337 9.07815C4.58772 8.9311 4.61529 8.78459 4.64605 8.63871ZM4.09627 9.57388C4.06676 9.74646 4.04096 9.92204 4.01534 10.0928C4.15445 10.115 4.30184 10.1305 4.45254 10.14C4.46049 9.95343 4.47437 9.7671 4.49461 9.58102L4.09627 9.57388ZM5.0064 9.5902C4.98524 9.77608 4.97055 9.96263 4.96234 10.1495C5.13903 10.1456 5.31295 10.1347 5.47593 10.117C5.47344 9.94417 5.47696 9.77133 5.4865 9.59877L5.0064 9.5902ZM8.17144 10.0634C7.5456 10.1767 7.48535 11.101 7.4617 11.5812C7.43721 12.1266 7.48611 12.6707 7.52244 12.9812C8.15471 12.9428 8.77449 12.9101 9.3446 12.813C9.33724 12.523 9.30827 11.9846 9.19524 11.4513C9.06677 10.8935 8.77616 10.0597 8.17144 10.0634ZM8.8617 11.3411L8.92125 11.8416L8.41434 11.9005L8.35476 11.4001L8.8617 11.3411Z"
        fill="currentColor" />
</svg>