<svg width="24" height="25" viewBox="0 0 24 25" fill="none" xmlns="http://www.w3.org/2000/svg">
    <path
        d="M17.416 17.9145C17.5818 17.7646 17.7413 17.6078 17.894 17.4445L20.5 14.4985C21.5 13.4985 22.724 12.4985 24 12.4985C22.724 12.4985 21.5 11.4985 20.5 10.4985L17.894 7.55154C16.446 6.00742 14.4499 5.09321 12.3349 5.00551C10.2198 4.9178 8.15487 5.66361 6.584 7.08254M15.297 19.2955C13.763 19.981 12.0534 20.1711 10.4063 19.8395C8.75914 19.5079 7.25633 18.6711 6.107 17.4455L3.5 14.4985C2.5 13.4985 1.276 12.4985 0 12.4985C1.276 12.4985 2.5 11.4985 3.5 10.4985L4.908 8.90654M0.5 0.998535L23.5 23.9985M13.768 14.2665C14.2369 13.7976 14.5003 13.1617 14.5003 12.4985C14.5003 11.8354 14.2369 11.1994 13.768 10.7305C13.2991 10.2616 12.6631 9.99821 12 9.99821C11.3369 9.99821 10.7009 10.2616 10.232 10.7305"
        stroke="currentColor" />
</svg>