<svg width="23" height="22" viewBox="0 0 23 22" fill="none" xmlns="http://www.w3.org/2000/svg">
    <path
        d="M11.5 6.99854V5.98454M11.5 6.24854C11.5 3.34854 13.85 0.998535 16.75 0.998535C19.65 0.998535 22 3.38054 22 6.28054C22 7.84054 21.313 9.33554 20.12 10.3425L14.463 15.1185C13.5347 15.9024 12.7886 16.8794 12.2769 17.9813C11.7651 19.0832 11.5 20.2836 11.5 21.4985C11.5 20.2836 11.2349 19.0832 10.7231 17.9813C10.2114 16.8794 9.46531 15.9024 8.537 15.1185L2.88 10.3425C2.29087 9.84226 1.81758 9.21985 1.49295 8.51844C1.16832 7.81704 1.00012 7.05342 1 6.28054C1 3.38054 3.35 0.998535 6.25 0.998535C9.15 0.998535 11.5 3.34854 11.5 6.24854Z"
        stroke="currentColor" />
</svg>