<svg width="18" height="17" viewBox="0 0 18 17" fill="none" xmlns="http://www.w3.org/2000/svg">
    <path
        d="M1.125 13.2571V0M1.125 13.2571C1.125 13.2571 1.125 16 0 16M1.125 13.2571H16.875M16.875 13.2571C16.875 13.2571 16.875 16 18 16M16.875 13.2571V8.22857C16.875 7.37988 16.5984 6.56595 16.1062 5.96583C15.6139 5.36571 14.9462 5.02857 14.25 5.02857H7.875V8.68571M1.125 10.5143H16.875M6.375 6.76571C6.375 6.76571 5.625 8.22857 4.6875 8.22857C4.3394 8.22857 4.00556 8.06 3.75942 7.75994C3.51328 7.45988 3.375 7.05292 3.375 6.62857C3.375 5.74537 3.963 5.03223 4.6875 5.03223C5.625 5.03223 6.375 6.49143 6.375 6.49143V6.76571Z"
        stroke="currentColor" />
</svg>