<svg width="15" height="15" viewBox="0 0 15 15" fill="none" xmlns="http://www.w3.org/2000/svg">
    <path
        d="M7.5 4H6.33333C6.02391 4 5.72717 4.12292 5.50838 4.34171C5.28958 4.5605 5.16667 4.85725 5.16667 5.16667V5.60417C5.16667 5.8566 5.24854 6.10222 5.4 6.30417C5.55146 6.50611 5.76433 6.65349 6.00667 6.72417L8.99333 7.59567C9.23567 7.66635 9.44854 7.81372 9.6 8.01567C9.75146 8.21761 9.83333 8.46323 9.83333 8.71567V9.83333C9.83333 10.1428 9.71042 10.4395 9.49162 10.6583C9.27283 10.8771 8.97609 11 8.66667 11H7.5M7.5 4H8.66667C8.97609 4 9.27283 4.12292 9.49162 4.34171C9.71042 4.5605 9.83333 4.85725 9.83333 5.16667V5.75M7.5 4V2.25M7.5 11H6.33333C6.02391 11 5.72717 10.8771 5.50838 10.6583C5.28958 10.4395 5.16667 10.1428 5.16667 9.83333V9.25M7.5 11V12.75M14.5 7.5C14.5 5.64348 13.7625 3.86301 12.4497 2.55025C11.137 1.2375 9.35652 0.5 7.5 0.5C5.64348 0.5 3.86301 1.2375 2.55025 2.55025C1.2375 3.86301 0.5 5.64348 0.5 7.5C0.5 9.35652 1.2375 11.137 2.55025 12.4497C3.86301 13.7625 5.64348 14.5 7.5 14.5C9.35652 14.5 11.137 13.7625 12.4497 12.4497C13.7625 11.137 14.5 9.35652 14.5 7.5Z"
        stroke="currentColor" />
</svg>