<svg width="15" height="15" viewBox="0 0 15 15" fill="none" xmlns="http://www.w3.org/2000/svg">
    <path
        d="M7.5 3.47874V14.2021M9.14706 3.77662H14.5V14.2021H0.5V3.77662H5.85294M1.73529 1.98938C1.95353 1.98938 2.27882 1.82555 2.55306 1.65994C2.90989 1.44567 3.21299 1.18852 3.44906 0.899765C3.62529 0.681127 3.79412 0.415425 3.79412 0.202148C3.79412 0.415425 3.96294 0.681127 4.14 0.899765C4.37471 1.19168 4.68271 1.44666 5.03518 1.65994C5.30859 1.82555 5.63471 1.98938 5.85294 1.98938M13.2647 0.500021C13.0465 0.500021 12.7212 0.663851 12.4469 0.829468C12.0901 1.04373 11.787 1.30089 11.5509 1.58964C11.3747 1.80828 11.2059 2.07398 11.2059 2.28725C11.2059 2.07398 11.0371 1.80828 10.86 1.58964C10.6242 1.30093 10.3214 1.04378 9.96482 0.829468C9.69141 0.663851 9.36529 0.500021 9.14706 0.500021"
        stroke="currentColor" />
</svg>