<svg width="23" height="23" viewBox="0 0 23 23" fill="none" xmlns="http://www.w3.org/2000/svg">
    <path
        d="M14.7698 16.0325C15.017 15.6192 15.3432 15.2586 15.7297 14.9713C16.1163 14.6841 16.5556 14.4757 17.0227 14.3583C17.4897 14.2408 17.9753 14.2165 18.4518 14.2867C18.9282 14.3569 19.3862 14.5203 19.7995 14.7675C20.2128 15.0147 20.5734 15.3409 20.8607 15.7274C21.1479 16.114 21.3563 16.5533 21.4737 17.0204C21.5912 17.4874 21.6155 17.973 21.5453 18.4495C21.4751 18.9259 21.3117 19.3839 21.0645 19.7972C20.5653 20.632 19.7549 21.2342 18.8116 21.4714C17.8684 21.7086 16.8695 21.5615 16.0348 21.0622C15.2 20.563 14.5978 19.7526 14.3606 18.8093C14.1233 17.8661 14.2705 16.8672 14.7698 16.0325ZM14.7698 16.0325C12.9402 14.766 10.9291 13.7843 8.80503 13.1211L8.42919 13.0029M14.7698 6.96572C14.5226 6.5524 14.3592 6.09444 14.289 5.61798C14.2188 5.14153 14.2431 4.65591 14.3606 4.18886C14.478 3.7218 14.6864 3.28245 14.9736 2.8959C15.2609 2.50935 15.6215 2.18317 16.0348 1.93597C16.4481 1.68877 16.9061 1.52541 17.3825 1.4552C17.859 1.38499 18.3446 1.40931 18.8116 1.52677C19.2787 1.64424 19.718 1.85255 20.1046 2.13981C20.4911 2.42707 20.8173 2.78765 21.0645 3.20097C21.5638 4.03571 21.711 5.03457 21.4737 5.97784C21.2365 6.9211 20.6343 7.73148 19.7995 8.23072C18.9648 8.72996 17.9659 8.87715 17.0227 8.63992C16.0794 8.40268 15.269 7.80046 14.7698 6.96572ZM14.7698 6.96572C12.9401 8.23191 10.929 9.21321 8.80503 9.87614L8.42919 9.99439M8.42919 9.99439C8.63544 10.4527 8.75003 10.9615 8.75003 11.4977C8.75003 12.034 8.63544 12.5427 8.42919 13.0011C8.08523 13.7662 7.48927 14.3903 6.74075 14.7692C5.99223 15.1481 5.13642 15.2588 4.31613 15.0829C3.49583 14.907 2.76066 14.4551 2.23328 13.8027C1.7059 13.1502 1.41821 12.3367 1.41821 11.4977C1.41821 10.6588 1.7059 9.84521 2.23328 9.19276C2.76066 8.54031 3.49583 8.08844 4.31613 7.91255C5.13642 7.73666 5.99223 7.84738 6.74075 8.22624C7.48927 8.60511 8.08523 9.2292 8.42919 9.99439Z"
        stroke="currentColor" />
</svg>