<svg width="32" height="33" viewBox="0 0 32 33" fill="none" xmlns="http://www.w3.org/2000/svg">
    <path
        d="M6 12.4985C5.20888 12.4985 4.43552 12.7331 3.77772 13.1727C3.11992 13.6122 2.60723 14.2369 2.30448 14.9678C2.00173 15.6987 1.92252 16.503 2.07686 17.2789C2.2312 18.0548 2.61216 18.7676 3.17157 19.327C3.73098 19.8864 4.44372 20.2673 5.21964 20.4217C5.99556 20.576 6.79983 20.4968 7.53074 20.1941C8.26164 19.8913 8.88635 19.3786 9.32588 18.7208C9.76541 18.063 10 17.2897 10 16.4985C10 15.4377 9.57857 14.4203 8.82843 13.6701C8.07828 12.92 7.06087 12.4985 6 12.4985Z"
        fill="currentColor" />
    <path
        d="M9 16.4985C9 18.1554 7.65685 19.4985 6 19.4985C4.34315 19.4985 3 18.1554 3 16.4985C3 14.8417 4.34315 13.4985 6 13.4985C7.65685 13.4985 9 14.8417 9 16.4985Z"
        fill="transparent" />
    <path
        d="M26 12.4985C25.2089 12.4985 24.4355 12.7331 23.7777 13.1727C23.1199 13.6122 22.6072 14.2369 22.3045 14.9678C22.0017 15.6987 21.9225 16.503 22.0769 17.2789C22.2312 18.0548 22.6122 18.7676 23.1716 19.327C23.731 19.8864 24.4437 20.2673 25.2196 20.4217C25.9956 20.576 26.7998 20.4968 27.5307 20.1941C28.2616 19.8913 28.8864 19.3786 29.3259 18.7208C29.7654 18.063 30 17.2897 30 16.4985C30 15.4377 29.5786 14.4203 28.8284 13.6701C28.0783 12.92 27.0609 12.4985 26 12.4985Z"
        fill="currentColor" />
    <path
        d="M29 16.4985C29 18.1554 27.6569 19.4985 26 19.4985C24.3431 19.4985 23 18.1554 23 16.4985C23 14.8417 24.3431 13.4985 26 13.4985C27.6569 13.4985 29 14.8417 29 16.4985Z"
        fill="transparent" />
    <path
        d="M16 12.4985C15.2089 12.4985 14.4355 12.7331 13.7777 13.1727C13.1199 13.6122 12.6072 14.2369 12.3045 14.9678C12.0017 15.6987 11.9225 16.503 12.0769 17.2789C12.2312 18.0548 12.6122 18.7676 13.1716 19.327C13.731 19.8864 14.4437 20.2673 15.2196 20.4217C15.9956 20.576 16.7998 20.4968 17.5307 20.1941C18.2616 19.8913 18.8864 19.3786 19.3259 18.7208C19.7654 18.063 20 17.2897 20 16.4985C20 15.4377 19.5786 14.4203 18.8284 13.6701C18.0783 12.92 17.0609 12.4985 16 12.4985Z"
        fill="currentColor" />
    <path
        d="M19 16.4985C19 18.1554 17.6569 19.4985 16 19.4985C14.3431 19.4985 13 18.1554 13 16.4985C13 14.8417 14.3431 13.4985 16 13.4985C17.6569 13.4985 19 14.8417 19 16.4985Z"
        fill="transparent" />
</svg>