<svg width="17" height="16" viewBox="0 0 17 16" fill="none" xmlns="http://www.w3.org/2000/svg">
    <path
        d="M9.1924 3.22728L11.3002 1.29331C11.7129 0.91454 12.2388 0.656577 12.8113 0.552058C13.3838 0.447538 13.9773 0.501158 14.5165 0.706134C15.0558 0.91111 15.5168 1.25823 15.841 1.7036C16.1653 2.14896 16.3383 2.67255 16.3381 3.20813V15.5M4.02718 5.25827L3.04422 6.16079M2.79866 7.74051L1.81292 8.64303M1.32109 6.38674L0.338135 7.28925M4.27344 9.09493L3.28979 9.99745M5.74892 10.4487L4.76527 11.3512M6.97883 7.96646L5.99518 8.86834M5.50335 6.61141L4.519 7.5152M7.47066 1.64756L7.36283 1.74649C6.64004 2.40966 5.67715 2.80643 4.65674 2.86155L4.15031 2.889L4.02718 3.00197L9.43866 7.96646L9.56109 7.85349L9.591 7.38882C9.65108 6.45258 10.0835 5.56911 10.8063 4.90594L10.9141 4.80701L7.47066 1.64756Z"
        stroke="currentColor" />
</svg>